<?xml version="1.0" standalone="no"?><!DOCTYPE svg PUBLIC "-//W3C//DTD SVG 1.1//EN" "http://www.w3.org/Graphics/SVG/1.1/DTD/svg11.dtd"><svg t="1522823025650" class="icon" style="" viewBox="0 0 1024 1024" version="1.1" xmlns="http://www.w3.org/2000/svg" p-id="10670" xmlns:xlink="http://www.w3.org/1999/xlink" width="200" height="200"><defs><style type="text/css"></style></defs><path d="M1022.30864 382.88L940.54864 119.2a43.84 43.84 0 0 0-2.72-6.4l-1.28-2.24-0.96-1.76-2.24-2.88-1.44-1.76a43.68 43.68 0 0 0-5.28-5.12l-1.44-1.12-4.8-3.2-2.24-1.12-5.92-2.88h-1.92a43.84 43.84 0 0 0-7.2-1.44h-11.2l-282.24 48a43.84 43.84 0 0 0 14.56 85.6L807.74864 192 515.10864 645.28 321.34864 471.36a43.84 43.84 0 0 0-66.24 8.96L7.10864 868a43.84 43.84 0 1 0 73.92 48L301.18864 571.2l193.6 173.76A43.84 43.84 0 0 0 560.22864 736l324.32-501.12 53.92 173.92a43.84 43.84 0 0 0 83.84-25.92z" p-id="10671"></path></svg>