<?xml version="1.0" standalone="no"?><!DOCTYPE svg PUBLIC "-//W3C//DTD SVG 1.1//EN" "http://www.w3.org/Graphics/SVG/1.1/DTD/svg11.dtd"><svg t="1522823031246" class="icon" style="" viewBox="0 0 1024 1024" version="1.1" xmlns="http://www.w3.org/2000/svg" p-id="10779" xmlns:xlink="http://www.w3.org/1999/xlink" width="200" height="200"><defs><style type="text/css"></style></defs><path d="M1022.30864 641.12l-81.76 263.68a43.84 43.84 0 0 1-2.72 6.4l-1.28 2.24-0.96 1.76-2.24 2.88-1.44 1.76a43.68 43.68 0 0 1-5.28 5.12l-1.44 1.12-4.8 3.2-2.24 1.12-5.28 2.08h-1.92a43.84 43.84 0 0 1-7.2 1.44h-11.84l-282.24-48a43.84 43.84 0 0 1 14.56-84.8L807.74864 832 515.10864 378.72 321.34864 552.64a43.84 43.84 0 0 1-66.24-8.64L7.10864 156a43.84 43.84 0 1 1 73.92-48L301.18864 452.8l193.6-173.76A43.84 43.84 0 0 1 560.22864 288l324.32 501.12 53.92-173.92a43.84 43.84 0 0 1 83.84 25.92z" p-id="10780"></path></svg>