<svg id="图层_1" data-name="图层 1" xmlns="http://www.w3.org/2000/svg" viewBox="0 0 64 64"><title>图标</title><ellipse cx="32" cy="46.47" rx="3.66" ry="3.73"/><path d="M32,11.16a3.7,3.7,0,0,0-3.66,3.73V34a3.66,3.66,0,1,0,7.33,0V14.89A3.7,3.7,0,0,0,32,11.16Z"/><path d="M60,17.45c0-3-.09-6.34-.09-10a2.49,2.49,0,0,0-1.75-2.38A134.89,134.89,0,0,0,32.88,0L31.4,0A81.37,81.37,0,0,0,17.91,1.85c-4.28,1-8.36,2.08-12.13,3.25A2.48,2.48,0,0,0,4,7.47c0,3.27,0,6.28-.06,9.07-.26,23.95-.36,32.91,23,45.9A10.34,10.34,0,0,0,32.09,64a10.41,10.41,0,0,0,5-1.52C60.44,49.8,60.34,42.3,60,17.45ZM34.84,58.1a6,6,0,0,1-2.75.93,5.86,5.86,0,0,1-2.75-1C8.54,46.52,8.61,40.19,8.86,16.61q0-1.34,0-2.75a6,6,0,0,1,4.49-5.77Q16.11,7.36,19,6.7A75.76,75.76,0,0,1,31.47,5a6.37,6.37,0,0,1,1.09,0,137,137,0,0,1,17.9,3.11,6,6,0,0,1,4.61,5.79q0,1.87,0,3.61C55.45,41.79,55.52,46.84,34.84,58.1Z"/></svg>