<?xml version="1.0" standalone="no"?><!DOCTYPE svg PUBLIC "-//W3C//DTD SVG 1.1//EN" "http://www.w3.org/Graphics/SVG/1.1/DTD/svg11.dtd"><svg t="1527645063222" class="icon" style="" viewBox="0 0 1024 1024" version="1.1" xmlns="http://www.w3.org/2000/svg" p-id="3079" xmlns:xlink="http://www.w3.org/1999/xlink" width="200" height="200"><defs><style type="text/css"></style></defs><path d="M304.997434 262.897509h11.998189c18.006943 0 30.005132-11.998189 30.005132-30.005132V88.83683c0-18.006943-11.998189-30.005132-30.005132-30.005132h-11.998189c-18.006943 0-30.005132 11.998189-30.005132 30.005132v150.064302c0 11.978868 11.998189 23.996377 30.005132 23.996377z m390.008755 0h11.998188c18.006943 0 30.005132-11.998189 30.005132-30.005132V88.817509c0-18.006943-11.998189-30.005132-30.005132-30.005132h-11.998188c-18.006943 0-30.005132 11.998189-30.005132 30.005132v150.064302c0 11.998189 18.006943 24.015698 30.005132 24.015698z m168.013283-132.057358H785.002264v54.02083h77.997887c35.994566 0 65.999698 30.005132 65.999698 66.03834v60.029585H82.982642v-60.029585c0-36.013887 30.005132-66.03834 65.999698-66.03834h77.997886V130.840151H154.991094c-72.008453 0-126.009962 60.029585-126.009962 126.048604v582.250264c0 66.03834 54.001509 126.048604 126.009962 126.048604h714.037132c65.999698 0 126.009962-54.02083 126.009963-126.048604V256.888755c-6.028075-66.03834-60.029585-126.048604-132.018717-126.048604z m0 774.337207H154.991094c-35.994566 0-65.999698-30.005132-65.999698-66.038339V370.93917h846.036529v462.210415c-0.019321 42.003321-30.005132 72.027774-72.008453 72.027773zM389.004075 130.840151h240.002416v54.02083H389.004075V130.840151z" p-id="3080"></path></svg>