<svg id="图层_1" data-name="图层 1" xmlns="http://www.w3.org/2000/svg" viewBox="0 0 64 64"><defs><style>.cls-1{fill:#040000;}</style></defs><title>图标</title><path class="cls-1" d="M48.22,63.86H37.31a3,3,0,0,1-3-3V42.18H29.69V60.86a3,3,0,0,1-3,3H16a8.4,8.4,0,0,1-5.83-2.15,9.19,9.19,0,0,1-2.68-7V38.72H5.76l-.33,0A6.6,6.6,0,0,1,.51,35.62c-.66-1.2-1.17-3.23.2-6C2.83,25.22,19.93,8.18,25.54,2.65A2.92,2.92,0,0,1,26.21,2l.21-.13A9.72,9.72,0,0,1,31.64.14h.76a9.69,9.69,0,0,1,5.2,1.75l.2.13a3,3,0,0,1,.69.65c5.64,5.56,22.69,22.55,24.8,26.9,1.37,2.81.86,4.84.2,6a6.59,6.59,0,0,1-4.92,3.08l-.33,0H53.53a3,3,0,0,1,0-6H58l.11,0a3.72,3.72,0,0,0-.2-.49c-1.21-2.48-13.14-14.93-23.8-25.42a3.74,3.74,0,0,0-1.93-.63h-.29a3.79,3.79,0,0,0-2,.63C19.25,17.26,7.32,29.72,6.11,32.2a3.65,3.65,0,0,0-.2.48l.11,0h4.45a3,3,0,0,1,3,3V54.66a3.8,3.8,0,0,0,.77,2.65,2.38,2.38,0,0,0,1.47.54h8V39.18a3,3,0,0,1,3-3H37.31a3,3,0,0,1,3,3V57.86h8a2.42,2.42,0,0,0,1.5-.57,3.86,3.86,0,0,0,.75-2.63V46.88a3,3,0,0,1,6,0v7.78a9.19,9.19,0,0,1-2.68,7A8.41,8.41,0,0,1,48.22,63.86Z"/></svg>