<?xml version="1.0" encoding="UTF-8"?>
<svg width="27px" height="27px" viewBox="0 0 27 27" version="1.1" xmlns="http://www.w3.org/2000/svg" xmlns:xlink="http://www.w3.org/1999/xlink">
    <!-- Generator: Sketch 51.3 (57544) - http://www.bohemiancoding.com/sketch -->
    <title>icon_1</title>
    <desc>Created with Sketch.</desc>
    <defs></defs>
    <g id="Page-1" stroke="none" stroke-width="1" fill="none" fill-rule="evenodd">
        <g id="1.分公司首页-睁眼" transform="translate(-47.000000, -367.000000)" fill="#4080CA">
            <g id="4个icon" transform="translate(15.000000, 355.000000)">
                <path d="M45.4999058,12 C38.0509221,12 32,18.0509221 32,25.4999058 C32,32.9490779 38.0509221,39 45.4999058,39 C52.9490779,39 59,32.9490779 59,25.4999058 C59,18.0509221 52.9490779,12 45.4999058,12 Z M46.5847634,23.5713748 L51.2856874,23.5713748 L51.2856874,25.4999058 L46.4884103,25.4999058 L46.4884103,27.4286252 L51.2856874,27.4286252 L51.2856874,29.3571563 L46.4884103,29.3571563 L46.4884103,35.1910391 L44.5598416,35.1910391 L44.5598416,29.3571563 L39.7143126,29.3571563 L39.7143126,27.4286252 L44.5598416,27.4286252 L44.5598416,25.4999058 L39.7143126,25.4999058 L39.7143126,23.5713748 L44.4633378,23.5713748 L40.0758063,19.1838809 L41.4499491,17.809738 L45.5481954,21.9079842 L49.646404,17.809738 L51.0205468,19.1838809 L46.5847634,23.5713748 Z" id="icon_1"></path>
            </g>
        </g>
    </g>
</svg>
