<?xml version="1.0" encoding="UTF-8"?>
<svg width="19px" height="19px" viewBox="0 0 19 19" version="1.1" xmlns="http://www.w3.org/2000/svg" xmlns:xlink="http://www.w3.org/1999/xlink">
    <!-- Generator: Sketch 51.3 (57544) - http://www.bohemiancoding.com/sketch -->
    <title>icon_question</title>
    <desc>Created with Sketch.</desc>
    <defs></defs>
    <g id="Page-1" stroke="none" stroke-width="1" fill="none" fill-rule="evenodd">
        <g id="1.分公司首页-睁眼" transform="translate(-291.000000, -34.000000)" fill="#FFFFFF">
            <path d="M300.490778,51.8136585 C305.077123,51.8136585 308.795122,48.0956598 308.795122,43.5093146 C308.795122,38.9228537 305.077123,35.2048549 300.490778,35.2048549 C295.904317,35.2048549 292.186318,38.9228537 292.186318,43.5093146 C292.186318,48.0956598 295.904317,51.8136585 300.490778,51.8136585 Z M300.490778,52.9999768 C295.24884,52.9999768 291,48.7511366 291,43.5093146 C291,38.2673768 295.24884,34.0185366 300.490778,34.0185366 C305.7326,34.0185366 309.98144,38.2673768 309.98144,43.5093146 C309.98144,48.7511366 305.7326,52.9999768 300.490778,52.9999768 Z M297.524924,40.9444073 L298.963943,40.9444073 C299.026226,40.0267305 299.644861,39.4496402 300.60399,39.4496402 C301.556632,39.4496402 302.17536,40.0267305 302.17536,40.8120793 C302.17536,41.5281244 301.876388,41.9314341 301.03529,42.438572 C300.083205,43.0085951 299.659065,43.6343902 299.693543,44.61435 L299.70061,45.1707256 L301.139628,45.1707256 L301.139628,44.7465854 C301.139628,44.0306561 301.396499,43.6622646 302.293368,43.1337866 C303.210976,42.5845476 303.753124,41.8270732 303.753124,40.7492634 C303.753124,39.262189 302.515854,38.1707085 300.68057,38.1707085 C298.664994,38.1707085 297.587184,39.36655 297.524924,40.9444073 Z M300.43021,48.3887232 C300.9522,48.3887232 301.34791,47.9995476 301.34791,47.4924098 C301.34791,46.9846463 300.951644,46.5955402 300.43021,46.5955402 C299.923095,46.5955402 299.51967,46.9846463 299.51967,47.4924098 C299.51967,47.9995476 299.923095,48.3892793 300.43021,48.3892793 L300.43021,48.3887232 Z" id="icon_question"></path>
        </g>
    </g>
</svg>