<?xml version="1.0" encoding="UTF-8"?>
<svg width="33px" height="33px" viewBox="0 0 33 33" version="1.1" xmlns="http://www.w3.org/2000/svg" xmlns:xlink="http://www.w3.org/1999/xlink">
    <!-- Generator: Sketch 51.3 (57544) - http://www.bohemiancoding.com/sketch -->
    <title>icon_eye</title>
    <desc>Created with Sketch.</desc>
    <defs>
        <polygon id="path-1" points="0.00175609756 0.0243074004 23.9765561 0.0243074004 23.9765561 14.9999431 0.00175609756 14.9999431"></polygon>
    </defs>
    <g id="Page-1" stroke="none" stroke-width="1" fill="none" fill-rule="evenodd">
        <g id="1.分公司首页-睁眼" transform="translate(-327.000000, -125.000000)">
            <g id="icon_eye" transform="translate(327.000000, 125.000000)">
                <g id="Group-6">
                    <circle id="Oval-4" fill="#4080CA" cx="16.5" cy="16.5" r="16.5"></circle>
                    <g id="browse" transform="translate(5.000000, 9.000000)">
                        <mask id="mask-2" fill="white">
                            <use xlink:href="#path-1"></use>
                        </mask>
                        <g id="Clip-2"></g>
                        <path d="M23.7511024,7.10914611 C21.7729756,3.58360531 17.1053854,0.0243074004 11.9883512,0.0243074004 C6.87049756,0.0243074004 2.20302439,3.58360531 0.236780488,7.10914611 L0,7.51252372 L0.236780488,7.91521822 C2.20302439,11.4289469 6.87049756,14.9999431 11.9883512,14.9999431 C17.1053854,14.9999431 21.7728585,11.4289469 23.7511024,7.91521822 L23.9765561,7.51252372 L23.7511024,7.10914611 Z M11.9883512,13.3416319 C7.77096585,13.3416319 3.77847805,10.4036243 1.95412683,7.51252372 C3.77847805,4.60895636 7.77096585,1.68327324 11.9883512,1.68327324 C16.2049171,1.68327324 20.1974049,4.60895636 22.0217561,7.51252372 C20.1974049,10.4036243 16.2049171,13.3416319 11.9883512,13.3416319 Z" id="Fill-1" fill="#FFFFFF" mask="url(#mask-2)"></path>
                    </g>
                </g>
                <path d="M16.99,12.34 L16.99,16.505 L21.23,16.505 C21.23,18.805266 19.3316873,20.67 16.99,20.67 C14.6483127,20.67 12.75,18.805266 12.75,16.505 C12.75,14.204734 14.6483127,12.34 16.99,12.34 Z" id="Combined-Shape" fill="#FFFFFF"></path>
            </g>
        </g>
    </g>
</svg>
