<?xml version="1.0" encoding="UTF-8"?>
<svg width="17px" height="16px" viewBox="0 0 17 16" version="1.1" xmlns="http://www.w3.org/2000/svg" xmlns:xlink="http://www.w3.org/1999/xlink">
    <!-- Generator: Sketch 51.3 (57544) - http://www.bohemiancoding.com/sketch -->
    <title>icon_5</title>
    <desc>Created with Sketch.</desc>
    <defs></defs>
    <g id="Page-1" stroke="none" stroke-width="1" fill="none" fill-rule="evenodd">
        <g id="1.分公司首页-睁眼" transform="translate(-343.000000, -514.000000)" fill="#333333">
            <g id="趋势图" transform="translate(15.000000, 511.000000)">
                <g id="Group-5">
                    <path d="M340.746916,4.76397097 L343.2967,4.76397097 C344.2531,4.76397097 344.997107,5.38253701 344.997107,6.2074775 L344.997107,17.5565167 C344.997107,18.3813643 344.2531,19 343.2967,19 L329.700502,19 C328.744103,19 328,18.3813643 328,17.5565167 L328,6.20928882 C328,5.38444122 328.744103,4.76580552 329.700502,4.76580552 L332.250287,4.76580552 L332.250287,3.6307344 C332.250287,3.32048766 332.462584,3.01207547 332.887153,3.01207547 C333.206686,3.01207547 333.524139,3.21826415 333.524139,3.6307344 L333.524139,4.76580552 L339.580084,4.76580552 L339.580084,3.6307344 C339.580084,3.32048766 339.792381,3.01207547 340.21707,3.01207547 C340.536484,3.01207547 340.854056,3.21826415 340.854056,3.6307344 L340.854056,4.76580552 L340.746916,4.76580552 L340.746916,4.76397097 Z M340.746916,5.89904209 L340.746916,7.03411321 C340.746916,7.34435994 340.534523,7.65277213 340.10993,7.65277213 C339.790516,7.65277213 339.472968,7.44658345 339.472968,7.03411321 L339.472968,5.89904209 L333.417023,5.89904209 L333.417023,7.03411321 C333.417023,7.34435994 333.204726,7.65277213 332.780132,7.65277213 C332.460623,7.65277213 332.143146,7.44658345 332.143146,7.03411321 L332.143146,5.89904209 L329.912799,5.89904209 C329.381089,5.89904209 329.063516,6.10523077 329.063516,6.62173585 L329.063516,17.1459739 C329.063516,17.4561974 329.382954,17.7646096 329.912799,17.7646096 L342.872011,17.7646096 C343.403722,17.7646096 343.721294,17.558328 343.721294,17.0419158 L343.721294,6.62173585 C343.614153,6.10523077 343.18956,5.89904209 342.764895,5.89904209 L340.746916,5.89904209 Z M332.56774,9.51053701 L340.429367,9.51053701 C340.748781,9.51053701 341.066329,9.71672569 341.066329,10.1291727 C341.066329,10.5415501 340.854056,10.7478316 340.429367,10.7478316 L332.56774,10.7478316 C332.248326,10.7478316 331.930754,10.5415501 331.930754,10.1291727 C331.930754,9.71672569 332.248326,9.51053701 332.56774,9.51053701 Z M332.56774,13.0179739 L340.429367,13.0179739 C340.748781,13.0179739 341.066329,13.2242554 341.066329,13.6366328 C341.066329,13.9468563 340.854056,14.2552685 340.429367,14.2552685 L332.56774,14.2552685 C332.248326,14.2552685 331.930754,14.0490798 331.930754,13.6366328 C332.03603,13.2242554 332.248326,13.0179739 332.56774,13.0179739 Z" id="icon_5"></path>
                </g>
            </g>
        </g>
    </g>
</svg>