<?xml version="1.0" encoding="UTF-8"?>
<svg width="15px" height="18px" viewBox="0 0 15 18" version="1.1" xmlns="http://www.w3.org/2000/svg" xmlns:xlink="http://www.w3.org/1999/xlink">
    <!-- Generator: Sketch 51.3 (57544) - http://www.bohemiancoding.com/sketch -->
    <title>icon_bill</title>
    <desc>Created with Sketch.</desc>
    <defs></defs>
    <g id="Page-1" stroke="none" stroke-width="1" fill="none" fill-rule="evenodd">
        <g id="1.分公司首页-睁眼" transform="translate(-345.000000, -34.000000)" fill="#FFFFFF">
            <g id="icon_bill" transform="translate(345.000000, 34.000000)">
                <path d="M3.74524682,12.3593565 L11.235621,12.3593565 C11.531871,12.3593565 11.7707245,12.6100529 11.7707245,12.9208663 C11.7707245,13.231805 11.531871,13.4825014 11.235621,13.4825014 L3.74524682,13.4825014 C3.44899682,13.4825014 3.21014331,13.231805 3.21014331,12.9208663 C3.21014331,12.6100529 3.44899682,12.3593565 3.74524682,12.3593565 Z M3.74524682,8.98992201 L11.235621,8.98992201 C11.531871,8.98992201 11.7707245,9.24061838 11.7707245,9.5515571 C11.7707245,9.86237047 11.531871,10.1130669 11.235621,10.1130669 L3.74524682,10.1130669 C3.44899682,10.1130669 3.21014331,9.86237047 3.21014331,9.5515571 C3.21014331,9.24061838 3.44899682,8.98992201 3.74524682,8.98992201 Z" id="Fill-1"></path>
                <path d="M9.18728503,1.12815877 L13.9107803,6.08588022 L13.9107803,16.8518106 L1.07008758,16.8518106 L1.07008758,1.12815877 L9.18728503,1.12815877 Z M9.18728503,0.00501392758 L1.07008758,0.00501392758 C0.479570064,0.00501392758 0,0.508362117 0,1.12815877 L0,16.8518106 C0,17.471507 0.479570064,17.9749554 1.07008758,17.9749554 L13.9107803,17.9749554 C14.5012978,17.9749554 14.9808678,17.471507 14.9808678,16.8518106 L14.9808678,6.08588022 C14.9808678,5.78710028 14.8681529,5.50230919 14.6674682,5.29167409 L9.94394904,0.333952646 C9.74335987,0.12321727 9.47109076,0.00481337047 9.18728503,0.00501392758 Z" id="Fill-3"></path>
                <path d="M9.63054936,1.12815877 L8.56046178,1.12815877 L8.56046178,6.18212256 C8.56046178,6.49306128 8.79931529,6.74375766 9.09556529,6.74375766 L9.63054936,6.74375766 L9.63054936,1.12815877 Z" id="Fill-5"></path>
                <path d="M13.9107803,5.62061281 L8.56046178,5.62061281 L8.56046178,6.18212256 C8.56046178,6.49306128 8.79931529,6.74375766 9.09556529,6.74375766 L13.9107803,6.74375766 L13.9107803,5.62061281 Z" id="Fill-6"></path>
            </g>
        </g>
    </g>
</svg>