<?xml version="1.0" encoding="UTF-8"?>
<svg width="16px" height="16px" viewBox="0 0 16 16" version="1.1" xmlns="http://www.w3.org/2000/svg" xmlns:xlink="http://www.w3.org/1999/xlink">
    <!-- Generator: Sketch 51.3 (57544) - http://www.bohemiancoding.com/sketch -->
    <title>icon_6</title>
    <desc>Created with Sketch.</desc>
    <defs></defs>
    <g id="Page-1" stroke="none" stroke-width="1" fill="none" fill-rule="evenodd">
        <g id="1.分公司首页-睁眼" transform="translate(-317.000000, -514.000000)" fill="#333333">
            <g id="趋势图" transform="translate(15.000000, 511.000000)">
                <g id="Group-5">
                    <path d="M310.000049,18.0000183 C313.866011,18.0000183 317.000018,14.8660106 317.000018,11.0000488 C317.000018,7.13398942 313.866011,3.99998169 310.000049,3.99998169 C306.133989,3.99998169 302.999982,7.13398942 302.999982,11.0000488 C302.999982,14.8660106 306.133989,18.0000183 310.000049,18.0000183 Z M310.000049,19 C305.581469,19 302,15.4185308 302,11.0000488 C302,6.58146922 305.581469,3 310.000049,3 C314.418531,3 318,6.58146922 318,11.0000488 C318,15.4185308 314.418531,19 310.000049,19 Z M307.500046,8.83801494 L308.713036,8.83801494 C308.765536,8.06447884 309.287001,7.57803293 310.095479,7.57803293 C310.898487,7.57803293 311.420031,8.06447884 311.420031,8.72647183 C311.420031,9.33004679 311.168019,9.67000814 310.459034,10.0974891 C309.656494,10.577978 309.298974,11.1054786 309.328036,11.9315148 L309.333993,12.4004998 L310.546983,12.4004998 L310.546983,12.0429798 C310.546983,11.4395025 310.763507,11.1289748 311.519504,10.6835055 C312.292981,10.2205362 312.749974,9.58203928 312.749974,8.67352255 C312.749974,7.42002493 311.707043,6.49998474 310.160029,6.49998474 C308.461043,6.49998474 307.552526,7.50799378 307.500046,8.83801494 Z M309.948994,15.1130421 C310.388995,15.1130421 310.72255,14.7849949 310.72255,14.3575139 C310.72255,13.9295055 310.388526,13.6015168 309.948994,13.6015168 C309.521533,13.6015168 309.181474,13.9295055 309.181474,14.3575139 C309.181474,14.7849949 309.521533,15.1135109 309.948994,15.1135109 L309.948994,15.1130421 Z" id="icon_6"></path>
                </g>
            </g>
        </g>
    </g>
</svg>