<?xml version="1.0" encoding="UTF-8"?>
<svg width="19px" height="18px" viewBox="0 0 19 18" version="1.1" xmlns="http://www.w3.org/2000/svg" xmlns:xlink="http://www.w3.org/1999/xlink">
    <!-- Generator: Sketch 51.3 (57544) - http://www.bohemiancoding.com/sketch -->
    <title>icon_tanhao</title>
    <desc>Created with Sketch.</desc>
    <defs></defs>
    <g id="Page-1" stroke="none" stroke-width="1" fill="none" fill-rule="evenodd">
        <g id="1.分公司首页-睁眼" transform="translate(-318.000000, -34.000000)" fill="#FE363E">
            <path d="M334.632978,51.9999779 L320.366848,51.9999779 C319.410152,51.9999779 318.641565,51.616589 318.257717,50.9478061 C317.873804,50.2790233 317.920522,49.405416 318.38637,48.5518184 L325.5845,35.3625006 C326.053,34.5026086 326.749739,34.0097399 327.495152,34.0097399 C328.240652,34.0097399 328.936739,34.5020123 329.406587,35.3611092 L336.612174,48.5532098 C337.077957,49.4067853 337.126109,50.2797963 336.7415,50.9484025 C336.358261,51.6171853 335.589087,51.9999779 334.632978,51.9999779 Z M327.495913,35.394238 C327.258826,35.394238 326.987348,35.6345104 326.767326,36.0367166 L319.569217,49.2274258 C319.343739,49.6414479 319.290935,50.0132859 319.425609,50.2478601 C319.560457,50.481838 319.903696,50.6162528 320.366848,50.6162528 L334.632978,50.6162528 C335.096891,50.6162528 335.439457,50.482611 335.574217,50.2478601 C335.708217,50.0139043 335.656174,49.6421546 335.430022,49.2281988 L328.224435,36.0367166 C328.005,35.6345104 327.732174,35.394238 327.495913,35.394238 Z M327.499913,45.7542429 C327.126196,45.7542429 326.82287,45.4447975 326.82287,45.0620049 L326.82287,38.8314429 C326.82287,38.4492687 327.126196,38.1391828 327.499913,38.1391828 C327.873717,38.1391828 328.177065,38.449335 328.177065,38.8314429 L328.177065,45.0620049 C328.177065,45.4447975 327.873717,45.7542429 327.499913,45.7542429 Z M327.495065,49.1382209 C328.077696,49.1382209 328.550109,48.6544074 328.550109,48.0576466 C328.550109,47.4608196 328.077696,46.9770061 327.495065,46.9770061 C326.912457,46.9770061 326.440043,47.4608196 326.440043,48.0576466 C326.440043,48.6544074 326.912457,49.1383092 327.495065,49.1383092 L327.495065,49.1382209 Z" id="icon_tanhao"></path>
        </g>
    </g>
</svg>