<?xml version="1.0" standalone="no"?><!DOCTYPE svg PUBLIC "-//W3C//DTD SVG 1.1//EN" "http://www.w3.org/Graphics/SVG/1.1/DTD/svg11.dtd"><svg t="1522823486759" class="icon" style="" viewBox="0 0 1024 1024" version="1.1" xmlns="http://www.w3.org/2000/svg" p-id="13724" xmlns:xlink="http://www.w3.org/1999/xlink" width="200" height="200"><defs><style type="text/css"></style></defs><path d="M512 0a512 512 0 1 0 512 512A512 512 0 0 0 512 0z m436.96 512A436.96 436.96 0 1 1 512 75.04 437.44 437.44 0 0 1 948.96 512z" p-id="13725"></path><path d="M724.48 209.76a37.92 37.92 0 0 0-52.64 7.36L512 429.92 352 217.28a37.6 37.6 0 0 0-67.2 17.28 37.44 37.44 0 0 0 7.2 27.84l168.32 224h-106.4a37.6 37.6 0 1 0 0 75.04h120.64v51.36h-120.64a37.6 37.6 0 1 0 0 75.04h120.64V782.72a37.44 37.44 0 0 0 74.24 0v-94.88h120.64a37.6 37.6 0 0 0 0-75.04h-119.84v-51.2h120.64a37.6 37.6 0 0 0 0-75.04h-106.88l168.48-224a37.76 37.76 0 0 0-7.36-52.8z" p-id="13726"></path></svg>