<svg id="图层_1" data-name="图层 1" xmlns="http://www.w3.org/2000/svg" viewBox="0 0 64 64"><title>图标</title><path d="M32,.15C14.83.15.86,12.78.86,28.3A26.5,26.5,0,0,0,8.33,46.58V60.85A3,3,0,0,0,13.4,63l10.16-9.69A3,3,0,0,0,19.42,49l-5.09,4.85V45.33a3,3,0,0,0,0-.4c0-.06,0-.13,0-.19s0-.14-.06-.21a3,3,0,0,0-.39-.86l0,0a3,3,0,0,0-.34-.41h0A20.69,20.69,0,0,1,6.86,28.3C6.86,16.09,18.14,6.15,32,6.15S57.14,16.09,57.14,28.3,45.86,50.44,32,50.44a3,3,0,1,0,0,6c17.17,0,31.14-12.62,31.14-28.14S49.17.15,32,.15Z"/><circle cx="17.93" cy="27.51" r="3.99"/><circle cx="32" cy="27.51" r="3.99"/><circle cx="46.07" cy="27.51" r="3.99"/></svg>