<?xml version="1.0" standalone="no"?><!DOCTYPE svg PUBLIC "-//W3C//DTD SVG 1.1//EN" "http://www.w3.org/Graphics/SVG/1.1/DTD/svg11.dtd"><svg t="1522822220744" class="icon" style="" viewBox="0 0 1024 1024" version="1.1" xmlns="http://www.w3.org/2000/svg" p-id="2264" xmlns:xlink="http://www.w3.org/1999/xlink" width="200" height="200"><defs><style type="text/css"></style></defs><path d="M732.48 378.08H417.44a39.36 39.36 0 0 0 0 78.72h315.04a39.36 39.36 0 1 0 0-78.72zM732.48 189.12H417.44a39.36 39.36 0 0 0 0 78.72h315.04a39.36 39.36 0 1 0 0-78.72z" p-id="2265"></path><path d="M921.6 567.2A23.68 23.68 0 0 1 897.92 544V39.36A39.36 39.36 0 0 0 858.56 0H291.52a39.36 39.36 0 0 0-39.36 39.36V102.4a23.68 23.68 0 0 1-23.68 23.68h-63.04a39.36 39.36 0 0 0-39.36 39.36V544a23.68 23.68 0 0 1-23.68 23.2 39.36 39.36 0 0 0-39.36 39.36v378.08A39.36 39.36 0 0 0 102.4 1024h819.2a39.36 39.36 0 0 0 39.36-39.36V606.56a39.36 39.36 0 0 0-39.36-39.36zM204.8 544V228.48a23.68 23.68 0 1 1 48 0V544a23.68 23.68 0 1 1-48 0z m614.4 0a23.68 23.68 0 0 1-23.68 23.68H606.56a39.36 39.36 0 0 0-39.36 39.36v63.04A23.68 23.68 0 0 1 544 693.12h-64a23.68 23.68 0 0 1-23.68-23.68v-62.88a39.36 39.36 0 0 0-39.36-39.36h-62.56A23.68 23.68 0 0 1 330.88 544V102.4a23.68 23.68 0 0 1 23.68-23.68h440.96A23.68 23.68 0 0 1 819.2 102.4z m-441.12 125.6v63.04a39.36 39.36 0 0 0 39.36 39.36h189.12a39.36 39.36 0 0 0 39.36-39.36v-63.04a23.68 23.68 0 0 1 23.68-23.68h188.96a23.68 23.68 0 0 1 23.68 23.68V921.6a23.68 23.68 0 0 1-23.68 23.68H165.44a23.68 23.68 0 0 1-23.68-23.68V669.6a23.68 23.68 0 0 1 23.68-23.68h188.96a23.68 23.68 0 0 1 23.68 23.68z" p-id="2266"></path></svg>