<svg id="图层_1" data-name="图层 1" xmlns="http://www.w3.org/2000/svg" viewBox="0 0 64 64"><defs><style>.cls-1{fill:#040000;}</style></defs><title>图标</title><path class="cls-1" d="M59.93,28.42H7.07V21.34a3.62,3.62,0,0,1,3.62-3.62H53.31a3.63,3.63,0,0,1,3.33,2.22,3,3,0,1,0,5.52-2.35,9.62,9.62,0,0,0-8.86-5.87H45.52V11.1a9.27,9.27,0,0,0-9.26-9.26H27.74a9.27,9.27,0,0,0-9.26,9.26v.63H10.69a9.63,9.63,0,0,0-9.62,9.62v31.2a9.63,9.63,0,0,0,9.62,9.62H53.31a9.63,9.63,0,0,0,9.62-9.62V31.42A3,3,0,0,0,59.93,28.42ZM24.48,11.1a3.27,3.27,0,0,1,3.26-3.26h8.52a3.27,3.27,0,0,1,3.26,3.26v.63h-15Zm10.7,23.32a3.7,3.7,0,0,1,.58,2,3.76,3.76,0,0,1-7.53,0,3.7,3.7,0,0,1,.58-2ZM53.31,56.16H10.69a3.62,3.62,0,0,1-3.62-3.62V34.42H22.45a9.76,9.76,0,1,0,19.1,0H56.93V52.55A3.62,3.62,0,0,1,53.31,56.16Z"/></svg>