<?xml version="1.0" standalone="no"?><!DOCTYPE svg PUBLIC "-//W3C//DTD SVG 1.1//EN" "http://www.w3.org/Graphics/SVG/1.1/DTD/svg11.dtd"><svg t="1565060955878" class="icon" viewBox="0 0 1024 1024" version="1.1" xmlns="http://www.w3.org/2000/svg" p-id="11288" xmlns:xlink="http://www.w3.org/1999/xlink" width="200" height="200"><defs><style type="text/css"></style></defs><path d="M867.3 882.3h-64V465c0-77.5-30.4-150.5-85.6-205.7-55.2-55.2-128.3-85.6-205.7-85.6s-150.5 30.4-205.7 85.6-85.6 128.3-85.6 205.7v417.3h-64V465c0-47.8 9.4-94.2 28.1-138 18-42.3 43.6-80.3 76.3-112.9 32.7-32.7 70.7-58.3 112.9-76.3 43.8-18.6 90.3-28.1 138-28.1 47.8 0 94.2 9.4 138 28.1 42.3 18 80.3 43.6 112.9 76.3 32.7 32.7 58.3 70.7 76.3 112.9 18.6 43.8 28.1 90.3 28.1 138v417.3z" p-id="11289"></path><path d="M923.2 886.2H100.8c-17.7 0-32-14.3-32-32s14.3-32 32-32h822.4c17.7 0 32 14.3 32 32s-14.3 32-32 32zM410.1 749.7c-8.5 0-17-3.4-23.3-10.1-12.1-12.9-11.5-33.1 1.4-45.2l157-147.5H398c-12.9 0-24.6-7.8-29.5-19.7-5-11.9-2.3-25.7 6.8-34.8l206.6-208.6c12.4-12.6 32.7-12.7 45.3-0.2 12.6 12.4 12.7 32.7 0.2 45.3l-152.7 154H626c13.1 0 24.9 8 29.8 20.2 4.8 12.2 1.7 26.1-7.8 35.1L432 741c-6.2 5.8-14 8.7-21.9 8.7z" p-id="11290"></path></svg>