<?xml version="1.0" standalone="no"?><!DOCTYPE svg PUBLIC "-//W3C//DTD SVG 1.1//EN" "http://www.w3.org/Graphics/SVG/1.1/DTD/svg11.dtd"><svg class="icon" width="200px" height="200.00px" viewBox="0 0 1024 1024" version="1.1" xmlns="http://www.w3.org/2000/svg"><path d="M973.531429 941.568L690.834286 654.409143A388.388571 388.388571 0 0 0 797.257143 386.413714C797.257143 172.982857 626.907429 0 416.914286 0 206.921143 0 36.571429 172.982857 36.571429 386.413714c0 213.357714 170.276571 386.340571 380.342857 386.340572a374.125714 374.125714 0 0 0 199.533714-57.417143l289.792 294.546286a47.030857 47.030857 0 0 0 45.933714 12.434285c16.457143-4.388571 29.257143-17.481143 33.645715-34.084571a48.786286 48.786286 0 0 0-12.288-46.665143zM112.64 386.413714c0-170.715429 136.192-309.101714 304.274286-309.101714 168.009143 0 304.274286 138.386286 304.274285 309.101714S584.850286 695.515429 416.914286 695.515429c-168.082286 0-304.274286-138.386286-304.274286-309.101715z" /></svg>