<?xml version="1.0" standalone="no"?><!DOCTYPE svg PUBLIC "-//W3C//DTD SVG 1.1//EN" "http://www.w3.org/Graphics/SVG/1.1/DTD/svg11.dtd"><svg t="1545816097045" class="icon" style="" viewBox="0 0 1024 1024" version="1.1" xmlns="http://www.w3.org/2000/svg" p-id="1952" xmlns:xlink="http://www.w3.org/1999/xlink" width="200" height="200"><defs><style type="text/css"></style></defs><path d="M511.480036 0c70.656 0 137.140148 13.463704 199.414518 40.429037a519.585185 519.585185 0 0 1 162.853926 109.833482 519.585185 519.585185 0 0 1 109.833481 162.853925C1010.509369 375.390815 1024.010999 441.837037 1024.010999 512.530963c0 70.693926-13.463704 137.178074-40.429038 199.49037a519.585185 519.585185 0 0 1-109.833481 162.816 512.037926 512.037926 0 0 1-162.853926 109.264593C648.620184 1010.725926 582.173961 1024 511.480036 1024c-62.65363 0-121.856-10.581333-177.607112-31.706074a534.945185 534.945185 0 0 1-151.324444-87.419259l124.548741-265.557334 42.62874 68.835556a1289.709037 1289.709037 0 0 0 55.751112 85.257481c7.964444 10.202074 15.473778 19.683556 22.376296 28.444445 6.940444 8.722963 16.57363 13.805037 28.975407 15.284148 15.284148 2.161778 26.206815-0.568889 32.768-8.229926a284.065185 284.065185 0 0 0 21.88326-30.037333c2.161778-2.920296 6.371556-10.581333 12.553481-22.945185 6.181926-12.401778 13.653333-27.685926 22.376296-45.890371 8.760889-18.204444 18.583704-38.456889 29.544297-60.681481a4058.074074 4058.074074 0 0 0 32.768-68.266667l85.257481-180.337778 115.825778 62.274371-46.990222-337.692445-297.263408 182.537482 130.085926 44.790518-137.709037 283.041185c-21.124741-34.247111-39.367111-64.094815-54.651259-89.618963a1694.644148 1694.644148 0 0 0-19.114667-31.099259c-6.219852-9.860741-11.491556-18.432-15.853037-25.713778l-9.860741-16.384c2.920296 5.802667 3.109926 6.712889 0.568889 2.730667a266.05037 266.05037 0 0 0-32.237037-38.798222c-7.281778-7.281778-14.222222-10.922667-20.783407-10.922667-16.763259 0-28.785778 4.171852-36.02963 12.553482-7.319704 8.343704-13.12237 18.014815-17.521778 28.975407-1.441185 2.920296-5.082074 10.733037-10.922666 23.514074a1563.306667 1563.306667 0 0 1-22.945185 47.521185c-9.481481 18.962963-19.683556 40.049778-30.606223 63.336297l-34.967703 67.811555a6500.996741 6500.996741 0 0 1-57.912889 120.225185 498.725926 498.725926 0 0 1-70.504296-138.808889A507.904 507.904 0 0 1 0.010999 512.530963c0-70.656 13.274074-137.140148 39.898074-199.414519a512.037926 512.037926 0 0 1 109.264592-162.853925 519.585185 519.585185 0 0 1 162.853926-109.833482C374.301961 13.50163 440.78611 0 511.480036 0z" p-id="1953"></path></svg>