<?xml version="1.0" standalone="no"?><!DOCTYPE svg PUBLIC "-//W3C//DTD SVG 1.1//EN" "http://www.w3.org/Graphics/SVG/1.1/DTD/svg11.dtd"><svg t="1545816301159" class="icon" style="" viewBox="0 0 1024 1024" version="1.1" xmlns="http://www.w3.org/2000/svg" p-id="2305" xmlns:xlink="http://www.w3.org/1999/xlink" width="200" height="200"><defs><style type="text/css"></style></defs><path d="M512 960A448 448 0 1 0 512 64a448 448 0 0 0 0 896z m0 64a512 512 0 0 1-512-512 512 512 0 0 1 512-512 512 512 0 0 1 512 512 512 512 0 0 1-512 512zM352 373.632h77.632c3.392-49.536 36.736-80.64 88.448-80.64 51.392 0 84.8 31.104 84.8 73.472 0 38.656-16.128 60.416-61.504 87.744-51.392 30.784-74.24 64.512-72.384 117.44l0.384 29.952h77.632v-22.848c0-38.592 13.888-58.496 62.272-87.04 49.472-29.568 78.72-70.464 78.72-128.64C688 282.88 621.248 224 522.24 224c-108.736 0-166.848 64.512-170.24 149.632z m156.736 401.6c28.16 0 49.536-20.992 49.536-48.32a48 48 0 0 0-49.536-48.384 48.192 48.192 0 0 0-49.152 48.384c0 27.328 21.76 48.384 49.152 48.384v-0.064z" p-id="2306"></path></svg>