<?xml version="1.0" standalone="no"?><!DOCTYPE svg PUBLIC "-//W3C//DTD SVG 1.1//EN" "http://www.w3.org/Graphics/SVG/1.1/DTD/svg11.dtd"><svg class="icon" width="200px" height="200.00px" viewBox="0 0 1024 1024" version="1.1" xmlns="http://www.w3.org/2000/svg"><path d="M992.731971 135.843758c-0.963431-17.281542-10.417097-28.180354-27.096495-31.25129a201.597917 201.597917 0 0 0-35.948015-3.733295c-106.338686-0.301072-212.556944-0.180643-318.89563-0.180643-41.126457 0-41.608172 0-41.3071-41.246886 0.120429-20.171835-2.830078-38.416807-21.857839-48.532832a73.341178 73.341178 0 0 0-69.84874-1.023645c-22.219125 11.260099-25.711562 32.937294-22.700841 56.11985 0.602144 4.636511-0.301072 9.51388 0.421501 14.150391 2.348363 16.137468-4.034367 20.894408-19.991191 20.894408-81.108839-0.120429-162.157464 1.08386-243.266304 1.565575-40.945813 0.301072-81.891627-0.361287-122.83744 0.240858-21.436338 0.301072-38.657665 7.225732-39.440453 33.720082-0.782788 25.831991 13.548247 37.935092 36.730803 41.246885 10.05581 1.445146 20.65355 1.806433 30.70936 0.301073 22.520197-3.311794 29.6255 3.793509 29.324428 28.421211-1.445146 119.224575-0.662359 238.569578-0.662358 357.854367v355.024289c0.060214 68.042308 34.021154 103.749466 100.979601 103.930109 190.217389 0.421501 380.434779 0.361287 570.591954 0 67.018662-0.120429 100.558101-35.044799 100.859173-103.869895 0.301072-80.446481 0.060214-160.953176 0.060215-241.45987 0-157.159666 0.602144-314.259118-0.602145-471.418785-0.240858-24.386845 6.442944-31.733005 29.204-28.481426 14.81275 2.16772 30.107216 0.602144 43.956535-5.780586a35.586729 35.586729 0 0 0 21.556766-36.489945z m-248.203888 806.090595c-157.581167 0.602144-315.222549 1.384932-472.863931 1.926862-52.025269 0.180643-68.042308-16.43854-68.102522-69.668097V541.689027c0-112.78163 0.421501-225.503046-0.481715-338.224463-0.120429-18.967546 3.492437-25.651348 23.965343-25.591133 190.277604 0.843002 380.615422 0.843002 570.953241 0 19.02776 0 22.580412 6.141872 22.580412 23.905129-0.301072 220.685892 0.361287 441.371784 0.421501 662.11789 0 60.515504-17.642828 77.797046-76.472329 78.037903z"  /><path d="M441.107563 566.1963c0 78.278761 0.301072 156.557522-0.180644 234.776069-0.180643 33.840511-26.072849 52.687628-51.724196 38.597451-16.799826-9.212808-18.666474-25.109418-18.666474-42.511389 0.301072-87.792641 0.120429-175.645497 0.120429-263.438138V337.983605c0-35.285657 11.6816-52.145698 35.827587-51.784412 23.7847 0.301072 34.623298 16.860041 34.623298 53.048915v227.008407z m225.262188-4.395653c0 84.23999 0.120429 168.419765 0 252.659755-0.120429 32.395364-15.35468 52.205912-39.079166 51.483339-23.001913-0.662359-37.453376-19.509476-37.513591-50.279051-0.120429-169.44341-0.120429-338.826607 0-508.209802 0-32.154506 13.247175-48.77369 37.694234-49.074762 25.049204-0.361287 38.838308 17.401971 38.898523 50.700551V561.800647z"  /></svg>