<?xml version="1.0" standalone="no"?><!DOCTYPE svg PUBLIC "-//W3C//DTD SVG 1.1//EN" "http://www.w3.org/Graphics/SVG/1.1/DTD/svg11.dtd"><svg t="1545877427263" class="icon" style="" viewBox="0 0 1024 1024" version="1.1" xmlns="http://www.w3.org/2000/svg" p-id="2422" xmlns:xlink="http://www.w3.org/1999/xlink" width="200" height="200"><defs><style type="text/css"></style></defs><path d="M880.855579 146.270316h-227.43579C653.473684 65.805474 589.877895 0 512 0 434.176 0 370.526316 64.889263 370.526316 146.270316H143.144421A36.109474 36.109474 0 0 0 107.789474 182.864842V987.351579A36.109474 36.109474 0 0 0 143.144421 1024h737.711158a36.109474 36.109474 0 0 0 35.354947-36.594526V182.864842a36.109474 36.109474 0 0 0-35.354947-36.594526zM512 109.729684a36.109474 36.109474 0 0 1 35.354947 36.540632 36.109474 36.109474 0 0 1-35.354947 36.594526 36.109474 36.109474 0 0 1-35.354947-36.594526 36.109474 36.109474 0 0 1 35.354947-36.540632z m176.828632 475.405474H547.354947v73.135158h141.473685v73.135158H547.354947v146.32421H476.645053V731.351579H335.171368v-73.135158h141.473685v-73.135158H335.171368V512h91.082106l-91.082106-94.154105 50.391579-52.116211L512 496.478316l126.437053-130.748632 50.391579 52.116211L597.746526 512h91.082106v73.135158z" p-id="2423"></path></svg>