<?xml version="1.0" standalone="no"?><!DOCTYPE svg PUBLIC "-//W3C//DTD SVG 1.1//EN" "http://www.w3.org/Graphics/SVG/1.1/DTD/svg11.dtd"><svg class="icon" width="200px" height="200.00px" viewBox="0 0 1024 1024" version="1.1" xmlns="http://www.w3.org/2000/svg"><path d="M608.605013 1024c-0.341333-0.597333-0.512-1.28-0.853333-1.706667a36.352 36.352 0 0 1-12.117333-28.842666v-64l-0.085334-438.186667c0-13.824 4.437333-24.661333 13.994667-34.304C704.00768 360.96 798.301013 264.789333 892.594347 168.704a65.962667 65.962667 0 0 0 17.493333-28.416c9.557333-33.536-14.933333-68.437333-49.237333-69.973333L855.474347 70.229333h-686.933334c-25.6 0-46.08 13.909333-53.76 37.290667a53.76 53.76 0 0 0 8.192 51.2c3.84 5.12 8.106667 9.898667 12.544 14.506667 89.941333 91.648 179.882667 183.466667 270.08 274.944a45.226667 45.226667 0 0 1 13.653334 33.962666 85316.096 85316.096 0 0 0 0 298.581334c0 15.189333-5.376 27.050667-18.773334 34.304a34.304 34.304 0 0 1-50.005333-27.904c-0.170667-2.645333-0.170667-5.376-0.170667-8.106667l0.085334-281.770667a12.544 12.544 0 0 0-4.010667-9.813333C257.714347 397.141333 168.797013 306.858667 80.306347 216.32A125.866667 125.866667 0 0 1 42.674347 126.293333 124.16 124.16 0 0 1 168.797013 0.170667C397.661013 0 626.43968 0 855.218347 0.085333c47.872 0 84.565333 21.077333 109.568 62.72 24.746667 41.557333 21.333333 99.328-7.936 137.642667a202.24 202.24 0 0 1-16.469334 19.029333 226696.021333 226696.021333 0 0 1-271.872 276.736 13.141333 13.141333 0 0 0-4.096 10.24c0 159.232 0 318.549333 0.256 477.866667 0 15.104-1.536 28.928-13.141333 39.68h-42.922667z" /></svg>