<?xml version="1.0" encoding="UTF-8"?>
<svg width="27px" height="27px" viewBox="0 0 27 27" version="1.1" xmlns="http://www.w3.org/2000/svg" xmlns:xlink="http://www.w3.org/1999/xlink">
    <!-- Generator: Sketch 51.3 (57544) - http://www.bohemiancoding.com/sketch -->
    <title>icon_4</title>
    <desc>Created with Sketch.</desc>
    <defs></defs>
    <g id="Page-1" stroke="none" stroke-width="1" fill="none" fill-rule="evenodd">
        <g id="1.分公司首页-睁眼" transform="translate(-304.000000, -365.000000)" fill="#B5B5B5">
            <g id="4个icon" transform="translate(15.000000, 355.000000)">
                <path d="M314.433981,12.5421147 L311.457642,12.5421147 L311.457642,11.6946622 C311.457642,10.7702695 310.684632,10 309.756951,10 L295.37772,10 C294.450179,10 293.67703,10.7702695 293.67703,11.6946622 L293.67703,12.5421147 L290.700691,12.5421147 C289.77301,12.5421147 289,13.3123842 289,14.2367769 L289,17.6262401 C289,20.1683894 291.087248,22.2482384 293.63844,22.2482384 L293.67703,22.2482384 C294.063622,26.3308921 297.233222,29.5663707 301.25322,30.1441681 L301.25322,33.6106756 L298.27688,33.6106756 C297.349165,33.6106756 296.576051,34.380945 296.576051,35.3053378 L296.576051,36.5763258 C296.576051,36.807424 296.769312,37 297.001197,37 L307.978907,37 C308.210793,37 308.404089,36.807424 308.404089,36.5763258 L308.404089,35.3053378 C308.404089,34.380945 307.631079,33.6106756 306.703398,33.6106756 L303.72692,33.6106756 L303.72692,30.1441681 C307.746883,29.5663707 310.916518,26.2924393 311.303075,22.2482384 L311.341664,22.2482384 C313.892857,22.2482384 315.980244,20.1683894 315.980244,17.6262401 L315.980244,14.2367769 C316.134672,13.2739314 315.361662,12.5421147 314.433981,12.5421147 Z M293.715654,19.6676362 C292.556053,19.6676362 291.589782,18.7433822 291.589782,17.5491958 L291.589782,15.0457766 L293.715654,15.0457766 L293.715654,19.6676362 Z M305.852896,18.8587753 L304.538797,20.2069809 L304.848001,22.1327066 C304.886626,22.2868299 304.809272,22.4408491 304.69333,22.5563809 C304.615976,22.5948337 304.538797,22.6332865 304.461444,22.6332865 C304.384091,22.6332865 304.306912,22.6332865 304.268148,22.5948337 L302.644672,21.7088937 L301.021334,22.5948337 C300.866628,22.6720513 300.711956,22.6720513 300.557424,22.5563809 C300.441342,22.4794406 300.364128,22.2868299 300.402718,22.1327066 L300.711956,20.2069809 L299.397823,18.8587753 C299.281741,18.7433822 299.243151,18.589259 299.281741,18.435101 C299.320504,18.2811165 299.475037,18.165446 299.629708,18.165446 L301.446376,17.8959297 L302.258115,16.16278 C302.335433,16.0086568 302.490139,15.9315778 302.644672,15.9315778 C302.799204,15.9315778 302.95391,16.0086568 303.031229,16.16278 L303.842967,17.8959297 L305.659635,18.165446 C305.814307,18.2040375 305.930249,18.2811165 306.007602,18.435101 C306.007602,18.589259 305.968978,18.7433822 305.852896,18.8587753 Z M313.583618,17.5877873 C313.583618,18.7432435 312.655937,19.7062624 311.457642,19.7062624 L311.457642,15.0842641 L313.583618,15.0842641 L313.583618,17.5877873 Z" id="icon_4"></path>
            </g>
        </g>
    </g>
</svg>