<?xml version="1.0" encoding="UTF-8"?>
<svg width="27px" height="27px" viewBox="0 0 27 27" version="1.1" xmlns="http://www.w3.org/2000/svg" xmlns:xlink="http://www.w3.org/1999/xlink">
    <!-- Generator: Sketch 51.3 (57544) - http://www.bohemiancoding.com/sketch -->
    <title>icon_2</title>
    <desc>Created with Sketch.</desc>
    <defs></defs>
    <g id="Page-1" stroke="none" stroke-width="1" fill="none" fill-rule="evenodd">
        <g id="1.分公司首页-睁眼" transform="translate(-132.000000, -367.000000)" fill="#B5B5B5">
            <g id="4个icon" transform="translate(15.000000, 355.000000)">
                <path d="M139.235299,26.318956 L139.235299,15.1766057 C139.235299,13.420686 137.814575,12 136.058806,12 L120.176606,12 C118.420686,12 117,13.420686 117,15.1766057 L117,31.0588058 C117,32.8145749 118.420686,34.2352985 120.176606,34.2352985 L131.294104,34.2352985 L131.294104,30.2646826 C131.294104,28.0716375 134.495449,26.2941044 138.441175,26.2941044 C138.711079,26.2941044 138.974657,26.3004302 139.235299,26.318956 Z M129.705896,24.705858 L126.132417,21.1324166 L121.764701,25.4999812 L120.176606,23.9117725 L126.529403,17.5588246 L130.102995,21.1324166 L134.470597,16.7647015 L136.058806,18.3529478 L129.705896,24.705858 Z M132.882501,30.2646826 C132.882501,31.580088 135.370302,32.6470522 138.441175,32.6470522 C141.512162,32.6470522 144,31.580088 144,30.2646826 C144,28.9494655 141.512162,27.8825013 138.441175,27.8825013 C135.370302,27.8825013 132.882501,28.9494655 132.882501,30.2646826 Z M138.441175,37.4117536 C136.285182,37.4117536 134.355865,36.8813592 133.043698,36.0437079 C132.938229,36.2268194 132.882501,36.4192314 132.882501,36.6176304 C132.882501,37.9330358 135.370302,39 138.441175,39 C141.512162,39 144,37.9330358 144,36.6176304 C144,36.4192314 143.944084,36.2268194 143.838653,36.0437079 C142.529573,36.8813592 140.597018,37.4117536 138.441175,37.4117536 Z M138.441175,34.2352985 C136.285182,34.2352985 134.355865,33.7049041 133.043698,32.8673658 C132.938229,33.0503643 132.882501,33.2427387 132.882501,33.4411754 C132.882501,34.7563925 135.370302,35.8235073 138.441175,35.8235073 C141.512162,35.8235073 144,34.7563925 144,33.4411754 C144,33.2425881 143.944084,33.0503643 143.838653,32.8673658 C142.529573,33.7049041 140.597018,34.2352985 138.441175,34.2352985 Z" id="icon_2"></path>
            </g>
        </g>
    </g>
</svg>