<?xml version="1.0" standalone="no"?><!DOCTYPE svg PUBLIC "-//W3C//DTD SVG 1.1//EN" "http://www.w3.org/Graphics/SVG/1.1/DTD/svg11.dtd"><svg class="icon" width="200px" height="200.00px" viewBox="0 0 1024 1024" version="1.1" xmlns="http://www.w3.org/2000/svg"><path d="M512 512m-512 0a512 512 0 1 0 1024 0 512 512 0 1 0-1024 0Z" fill="#4080CA" /><path d="M737.92 460.16V365.6192c0-30.6688-26.2656-55.6032-58.5984-55.6032h-1.3312L648.6784 253.0048c-6.912-13.4144-22.4256-22.4512-38.6304-22.4512-3.7376 0-7.3984 0.512-10.9056 1.4336L324.9664 305.5104a18.1248 18.1248 0 0 0-7.9872 4.5056h-2.3808C282.2912 310.016 256 334.9504 256 365.6192v357.9136c0 30.6688 26.2912 55.6288 58.5984 55.6288h364.7488c32.3072 0 58.5728-24.96 58.5728-55.6288v-94.5152c45.5936-4.608 80.896-41.1648 80.896-84.4288s-35.3024-79.8208-80.896-84.4288zM441.472 310.016l167.4752-44.928a4.1472 4.1472 0 0 1 1.0752-0.128c2.56 0 5.4272 1.7152 6.1696 3.1744l21.5296 41.8816H441.472zM292.1728 365.6192c0-11.6992 10.0608-21.2224 22.4256-21.2224h364.7488c12.3648 0 22.4256 9.5232 22.4256 21.248v94.0032h-74.9568c-49.9968 0-90.7008 38.0928-90.7008 84.9408 0 46.8224 40.704 84.9152 90.7008 84.9152h74.9568v94.0288c0 11.7248-10.0608 21.248-22.4256 21.248H314.5984c-12.3648 0-22.4256-9.5232-22.4256-21.248V365.6448z m490.496 178.944c0 27.904-24.4736 50.56-54.528 50.56h-101.3248c-30.08 0-54.528-22.6816-54.528-50.5344 0-27.8784 24.448-50.5344 54.528-50.5344h101.2992c30.08 0 54.528 22.656 54.528 50.5344zM640 517.12a25.6256 25.6256 0 0 0 0 51.2 25.6256 25.6256 0 0 0 0-51.2z" fill="#ffffff" /></svg>
