<?xml version="1.0" standalone="no"?><!DOCTYPE svg PUBLIC "-//W3C//DTD SVG 1.1//EN" "http://www.w3.org/Graphics/SVG/1.1/DTD/svg11.dtd"><svg t="1545815848719" class="icon" style="" viewBox="0 0 1024 1024" version="1.1" xmlns="http://www.w3.org/2000/svg" p-id="1221" xmlns:xlink="http://www.w3.org/1999/xlink" width="200" height="200"><defs><style type="text/css"></style></defs><path d="M298.382222 703.146667h426.097778c16.896 0 30.492444 14.222222 30.492444 31.857777 0 17.749333-13.653333 32.028444-30.435555 32.028445h-426.097778a31.175111 31.175111 0 0 1-30.492444-31.971556c0-17.635556 13.596444-31.971556 30.435555-31.971555z m0-191.715556h426.097778c16.896 0 30.492444 14.222222 30.492444 31.971556 0 17.635556-13.653333 31.914667-30.435555 31.914666h-426.097778a31.175111 31.175111 0 0 1-30.492444-31.914666c0-17.692444 13.596444-31.971556 30.435555-31.971556z" p-id="1222" fill="#ffffff"></path><path d="M607.971556 64.170667l268.743111 282.055111v612.465778H146.204444V64.170667h461.710223z m0-63.886223H146.204444C112.64 0.284444 85.333333 28.899556 85.333333 64.170667v894.520889c0 35.271111 27.306667 63.886222 60.871111 63.886222h730.453334c33.621333 0 60.871111-28.615111 60.871111-63.886222V346.225778a65.422222 65.422222 0 0 0-17.806222-45.169778L651.036444 19.000889c-11.377778-11.946667-26.908444-18.773333-43.064888-18.716445z" p-id="1223" fill="#ffffff"></path><path d="M633.173333 64.170667H572.302222v287.516444c0 17.692444 13.653333 31.971556 30.492445 31.971556h30.435555V64.170667z" p-id="1224" fill="#ffffff"></path><path d="M876.657778 319.715556H572.302222v31.971555c0 17.692444 13.653333 31.971556 30.492445 31.971556h273.92V319.715556z" p-id="1225" fill="#ffffff"></path></svg>