<?xml version="1.0" standalone="no"?><!DOCTYPE svg PUBLIC "-//W3C//DTD SVG 1.1//EN" "http://www.w3.org/Graphics/SVG/1.1/DTD/svg11.dtd"><svg t="1545816287363" class="icon" style="" viewBox="0 0 1088 1024" version="1.1" xmlns="http://www.w3.org/2000/svg" p-id="2069" xmlns:xlink="http://www.w3.org/1999/xlink" width="212.5" height="200"><defs><style type="text/css"></style></defs><path d="M815.808 112.896h163.2c61.184 0 108.8 39.616 108.8 92.352v726.4c0 52.736-47.616 92.352-108.8 92.352H108.8C47.616 1024 0 984.384 0 931.648V205.376c0-52.8 47.616-92.352 108.8-92.352h163.2V40.32c0-19.84 13.632-39.616 40.768-39.616 20.48 0 40.768 13.184 40.768 39.616v72.64h387.584V40.32c0-19.84 13.568-39.616 40.768-39.616 20.48 0 40.768 13.184 40.768 39.616v72.64h-6.848v-0.128z m0 72.64v72.64c0 19.84-13.568 39.616-40.768 39.616-20.48 0-40.768-13.184-40.768-39.616V185.6H346.688v72.64c0 19.84-13.568 39.616-40.768 39.616-20.48 0-40.768-13.184-40.768-39.616V185.6h-142.72c-34.048 0-54.4 13.184-54.4 46.272v673.536c0 19.84 20.48 39.616 54.4 39.616h829.376c34.048 0 54.4-13.248 54.4-46.272V231.808c-6.912-33.088-34.048-46.272-61.248-46.272h-129.152z m-523.52 231.168h503.168c20.48 0 40.768 13.184 40.768 39.552 0 26.432-13.568 39.616-40.768 39.616H292.352c-20.48 0-40.768-13.184-40.768-39.616 0-26.368 20.288-39.552 40.768-39.552z m0 224.448h503.168c20.48 0 40.768 13.184 40.768 39.616 0 19.84-13.568 39.552-40.768 39.552H292.352c-20.48 0-40.768-13.184-40.768-39.552 6.72-26.432 20.288-39.616 40.768-39.616z" p-id="2070"></path></svg>