<?xml version="1.0" standalone="no"?><!DOCTYPE svg PUBLIC "-//W3C//DTD SVG 1.1//EN" "http://www.w3.org/Graphics/SVG/1.1/DTD/svg11.dtd"><svg t="1545894131807" class="icon" style="" viewBox="0 0 1024 1024" version="1.1" xmlns="http://www.w3.org/2000/svg" p-id="1360" xmlns:xlink="http://www.w3.org/1999/xlink" width="200" height="200"><defs><style type="text/css"></style></defs><path d="M512 512m-512 0a512 512 0 1 0 1024 0 512 512 0 1 0-1024 0Z" fill="#4080CA" p-id="1361"></path><path d="M527.111758 621.59903c-256.062061 0-336.089212-179.758545-339.285334-187.392-4.282182-10.891636 0-23.986424 10.674424-28.330666 10.643394-4.344242 23.458909 0 27.741091 10.891636 3.196121 6.516364 73.603879 161.264485 300.869819 161.264485 227.234909 0 297.673697-154.717091 300.869818-161.264485 4.251152-10.860606 17.066667-16.321939 27.741091-10.860606 10.674424 4.344242 15.980606 17.37697 10.674424 28.299636-3.227152 7.633455-83.223273 187.42303-339.285333 187.423031z" fill="#FFFFFF" p-id="1362"></path><path d="M248.645818 671.744c-2.172121 0-5.337212 0-7.478303-1.117091a22.341818 22.341818 0 0 1-12.815515-28.330667l43.752727-123.097212c4.282182-10.891636 16.011636-17.43903 27.741091-13.094788a22.341818 22.341818 0 0 1 12.815515 28.330667l-43.752727 123.128243a21.907394 21.907394 0 0 1-20.262788 14.180848zM426.821818 744.727273h-3.227151a21.224727 21.224727 0 0 1-17.066667-25.072485l22.403879-128.558546a20.852364 20.852364 0 0 1 24.544969-17.43903c11.729455 2.172121 19.238788 13.094788 17.066667 25.072485l-22.403879 128.558545a22.838303 22.838303 0 0 1-21.317818 17.439031zM627.401697 744.727273c-10.674424 0-19.238788-7.633455-21.348849-18.525091l-22.403878-128.558546a21.224727 21.224727 0 0 1 17.066666-25.072484 20.852364 20.852364 0 0 1 24.51394 17.43903l23.489939 129.644606a21.224727 21.224727 0 0 1-17.066667 25.072485h-4.251151zM805.546667 671.744a21.907394 21.907394 0 0 1-20.262788-14.180848l-43.752727-123.128243c-4.251152-10.860606 2.172121-23.955394 12.815515-28.330667 10.674424-4.344242 23.489939 2.172121 27.741091 13.094788l43.752727 123.097212c4.282182 10.922667-2.141091 23.986424-12.815515 28.330667-2.110061 0-5.337212 1.117091-7.447273 1.117091z" fill="#FFFFFF" p-id="1363"></path></svg>
