<?xml version="1.0" standalone="no"?><!DOCTYPE svg PUBLIC "-//W3C//DTD SVG 1.1//EN" "http://www.w3.org/Graphics/SVG/1.1/DTD/svg11.dtd"><svg class="icon" width="200px" height="200.00px" viewBox="0 0 1024 1024" version="1.1" xmlns="http://www.w3.org/2000/svg"><path d="M512 512m-512 0a512 512 0 1 0 1024 0 512 512 0 1 0-1024 0Z" fill="#f6f6f6" /><path d="M684.6976 520.3712a14.848 14.848 0 0 0-20.736 0l-45.9008 44.7488-45.9264-44.7488a14.9248 14.9248 0 0 0-20.7104 0 14.0288 14.0288 0 0 0 0 20.1984l31.2832 30.4896h-20.864a14.464 14.464 0 0 0-14.6432 14.2848c0 7.8848 6.5536 14.2848 14.6432 14.2848h41.5744v25.7792h-41.5744a14.464 14.464 0 0 0-14.6432 14.2848c0 7.8848 6.5536 14.2848 14.6432 14.2848h41.5744v40.8576c0 7.8848 6.5536 14.2848 14.6432 14.2848 8.1152 0 14.6688-6.4 14.6688-14.2848v-40.8576h41.5488c8.0896 0 14.6688-6.4 14.6688-14.2848a14.464 14.464 0 0 0-14.6688-14.2848h-41.5488v-25.7792h41.5488c8.0896 0 14.6688-6.4 14.6688-14.2848a14.464 14.464 0 0 0-14.6688-14.2848h-20.8896l31.3088-30.5152a14.0288 14.0288 0 0 0 0-20.1728z" fill="#aeaeae" /><path d="M730.496 256.3328H319.104C298.4192 256.384 281.6512 272.7168 281.6 292.864v438.528c0.0512 20.1984 16.8192 36.5312 37.504 36.5824h411.392c20.6848-0.0512 37.4528-16.384 37.504-36.5568V292.864C767.9488 272.7168 751.1808 256.384 730.496 256.3328z m0 475.0592l-0.0768 0.0512H319.1808l-0.0768-0.0512V292.9408l0.0768-0.0512h411.2384l0.0768 0.0512V731.392z" fill="#aeaeae" /><path d="M411.7248 418.6368h224.6144c10.368 0 18.7392-8.192 18.7392-18.2784a18.5088 18.5088 0 0 0-18.7392-18.2784h-224.6144a18.5088 18.5088 0 0 0-18.7392 18.2784c0 10.0864 8.3968 18.2784 18.7392 18.2784z m0 73.0112h224.6144c10.368 0 18.7392-8.192 18.7392-18.2784a18.5088 18.5088 0 0 0-18.7392-18.2784h-224.6144a18.5088 18.5088 0 0 0-18.7392 18.2784c0 10.112 8.3968 18.2784 18.7392 18.2784z m75.0336 37.2736h-75.008a18.5344 18.5344 0 0 0-18.7648 18.2784c0 10.0864 8.3968 18.2784 18.7648 18.2784h75.008c10.368 0 18.7648-8.192 18.7648-18.2784a18.5344 18.5344 0 0 0-18.7648-18.2784z" fill="#aeaeae" /></svg>