<?xml version="1.0" standalone="no"?><!DOCTYPE svg PUBLIC "-//W3C//DTD SVG 1.1//EN" "http://www.w3.org/Graphics/SVG/1.1/DTD/svg11.dtd"><svg class="icon" width="200px" height="200.00px" viewBox="0 0 1024 1024" version="1.1" xmlns="http://www.w3.org/2000/svg"><path d="M104.522491 670.884517a51.455528 51.455528 0 0 1 70.228689 8.02126L304.627323 837.282992V47.956894c0-26.453091 22.442461-47.956894 50.090208-47.956894 27.647747 0 50.004875 21.503803 50.004875 48.042226v927.991494c0 20.479812-13.567876 38.570313-33.706358 45.311584a51.711526 51.711526 0 0 1-55.722156-15.701189L95.989236 738.297232a46.676905 46.676905 0 0 1 8.533255-67.412715zM652.954797 2.730642a51.199531 51.199531 0 0 1 55.722156 15.701189l219.304656 267.346883c17.06651 20.73581 13.311878 51.028866-8.533255 67.412715a51.455528 51.455528 0 0 1-70.22869-8.02126L719.343521 186.792954v789.240766c0 26.453091-22.442461 47.956894-50.090207 47.956893a49.066217 49.066217 0 0 1-50.004875-47.956893V48.042226A48.639554 48.639554 0 0 1 652.954797 2.559977z" /></svg>