<?xml version="1.0" encoding="UTF-8"?>
<svg width="27px" height="27px" viewBox="0 0 27 27" version="1.1" xmlns="http://www.w3.org/2000/svg" xmlns:xlink="http://www.w3.org/1999/xlink">
    <!-- Generator: Sketch 51.3 (57544) - http://www.bohemiancoding.com/sketch -->
    <title>icon_3</title>
    <desc>Created with Sketch.</desc>
    <defs></defs>
    <g id="Page-1" stroke="none" stroke-width="1" fill="none" fill-rule="evenodd">
        <g id="1.分公司首页-睁眼" transform="translate(-218.000000, -367.000000)" fill="#B5B5B5">
            <g id="4个icon" transform="translate(15.000000, 355.000000)">
                <path d="M216.485574,12 C218.348979,12 220.101937,12.3553947 221.744408,13.0661842 C223.386879,13.7769327 224.818048,14.7422605 226.037873,15.9621267 C227.25774,17.1819519 228.223067,18.6131206 228.933816,20.2555917 C229.644605,21.8980629 230,23.6510212 230,25.5144256 C230,27.377789 229.644605,29.1307473 228.933816,30.7732185 C228.223067,32.4156897 227.25774,33.8468584 226.037873,35.0666836 C224.818048,36.2865498 223.386879,37.2470827 221.744408,37.9482414 C220.101937,38.6494001 218.348979,39 216.485574,39 C214.833513,39 213.272678,38.7214463 211.803109,38.1643388 C210.3335,37.6072723 209.003187,36.8388623 207.812173,35.8591089 L211.097115,28.8569885 C211.50054,29.5101574 211.875115,30.1152547 212.22092,30.6723621 C212.509063,31.1526286 212.797207,31.6088387 213.085391,32.0410745 C213.373535,32.4733102 213.575247,32.7662895 213.690488,32.9199715 C213.901832,33.1888945 214.098709,33.438638 214.281201,33.669161 C214.463734,33.899684 214.718272,34.0341455 215.044816,34.0725865 C215.448241,34.130207 215.736385,34.0581609 215.909287,33.8564481 C216.08219,33.6547354 216.274272,33.3906073 216.485574,33.0640228 C216.543236,32.9871818 216.653682,32.785469 216.816954,32.4589255 C216.980266,32.1323411 217.177184,31.7289156 217.407666,31.2486491 C217.63823,30.7684236 217.897564,30.2353315 218.185707,29.6494138 C218.473851,29.0634961 218.761994,28.4631937 219.050178,27.8484658 C219.722527,26.4268868 220.471716,24.8420362 221.297747,23.0939137 L224.352207,24.7363849 L223.113121,15.8324601 L215.275339,20.6445916 L218.704374,21.8260578 L215.073626,29.2892242 C214.51656,28.3863527 214.036293,27.5987223 213.632868,26.9263738 C213.459965,26.6381893 213.291899,26.3644715 213.128586,26.1051382 C212.965314,25.845764 212.826058,25.6200769 212.710776,25.4279539 L212.451443,24.9957182 C212.528284,25.1494001 212.533078,25.1734155 212.465868,25.0677643 C212.398617,24.962113 212.288171,24.8132259 212.134489,24.6211439 C211.980807,24.4290209 211.807904,24.2369389 211.615781,24.0448159 C211.423699,23.8527339 211.241207,23.7566725 211.068305,23.7566725 C210.626479,23.7566725 210.309484,23.8671186 210.117402,24.0880518 C209.925279,24.3089441 209.771597,24.5634824 209.656356,24.8516669 C209.617915,24.9285079 209.521895,25.1350155 209.368213,25.4711897 C209.214531,25.807364 209.012818,26.2251741 208.763075,26.7246611 C208.513331,27.2241071 208.244408,27.7812145 207.956265,28.3959425 L207.034173,30.1825059 C206.745988,30.7972339 206.467435,31.3831516 206.198512,31.9402181 C205.929548,32.4973256 205.699025,32.9679613 205.506943,33.3522073 C204.700092,32.2379923 204.080569,31.0181261 203.648333,29.6926497 C203.216097,28.3671322 203,26.9743636 203,25.5144256 C203,23.6510212 203.3506,21.8980629 204.051759,20.2555917 C204.752917,18.6131206 205.71345,17.1819519 206.933316,15.9621267 C208.153142,14.7422605 209.58431,13.7769327 211.226781,13.0661842 C212.869253,12.3553947 214.622211,12 216.485574,12 Z" id="icon_3"></path>
            </g>
        </g>
    </g>
</svg>