<?xml version="1.0" standalone="no"?><!DOCTYPE svg PUBLIC "-//W3C//DTD SVG 1.1//EN" "http://www.w3.org/Graphics/SVG/1.1/DTD/svg11.dtd"><svg t="1545898247490" class="icon" style="" viewBox="0 0 1024 1024" version="1.1" xmlns="http://www.w3.org/2000/svg" p-id="1241" xmlns:xlink="http://www.w3.org/1999/xlink" width="200" height="200"><defs><style type="text/css"></style></defs><path d="M157.030088 658.185983h-102.390692C20.478138 658.185983 0 687.506954 0 716.734842v241.362785c0 36.581402 20.478138 65.80929 54.639396 65.809291h102.390692c27.273157 0 47.751295-29.227888 47.751296-58.54886V716.734842c0-29.227888-20.478138-58.548859-47.751296-58.548859z m-20.478138 270.683756c0 14.613944-13.68312 21.874375-34.161258 21.874375s-34.161258-7.260431-34.161258-21.874375V753.316244c0-14.613944 13.68312-21.967458 34.161258-21.967458s34.161258 7.353513 34.161258 21.967458v175.553495zM430.040905 438.790655h-102.390691c-34.161258 0-54.639396 29.320971-54.639397 58.54886v460.758112c0 36.581402 20.478138 65.80929 54.639397 65.809291h102.390691c27.273157 0 54.639396-29.227888 54.639397-58.54886V497.339515c-6.888101-29.227888-27.366239-58.548859-54.639397-58.54886zM409.562767 928.962822c0 14.613944-13.68312 21.874375-34.161258 21.874375s-34.068176-7.260431-34.068176-21.874375V533.920916c0-14.613944 13.590037-21.967458 34.068176-21.967457s34.161258 7.353513 34.161258 21.967457v394.948823z m559.704754-563.148805h-102.390692c-34.068176 0-54.546314 29.227888-54.546314 58.455777v533.920916c0 36.581402 20.478138 65.80929 54.546314 65.80929h102.390692c27.366239 0 54.639396-29.227888 54.639397-58.548859V424.176711c-6.795019-29.227888-27.273157-58.455777-54.639397-58.455777z m-20.478138 563.148805c0 14.613944-13.590037 21.874375-34.068176 21.874375s-34.161258-7.260431-34.161258-21.874375V460.758113c0-14.613944 13.68312-21.967458 34.161258-21.967458s34.068176 7.353513 34.068176 21.967458v468.111626z m-245.73766-343.753477h-102.390692c-34.068176 0-54.546314 29.227888-54.546314 58.455776v314.525589c0 36.581402 20.478138 65.80929 54.546314 65.80929h102.390692c27.366239 0 47.844378-29.227888 47.844377-58.548859V643.572039c0-29.227888-20.478138-58.455777-47.844377-58.455777z m-20.478139 343.753477c0 14.613944-13.590037 21.874375-34.068175 21.874375S614.344151 943.483683 614.344151 928.962822V680.153441c0-14.613944 13.68312-21.967458 34.161258-21.967458s34.068176 7.353513 34.068175 21.967458V928.962822z m-614.34415-329.139533l307.172075-285.204618L593.866012 475.372057c20.478138 29.227888 47.751295 7.353513 47.751296 0l314.060176-358.367421v65.80929c0 21.967458 13.590037 36.581402 34.068175 36.581402S1023.906918 204.781384 1023.906918 182.813926V36.581402C1023.906918 14.613944 1010.223798 0 989.745659 0H853.286792C832.808654 0 819.125534 14.613944 819.125534 36.581402c0 21.967458 13.68312 36.581402 34.161258 36.581401h47.751295L614.344151 394.948823 395.879647 234.009272a31.461867 31.461867 0 0 0-47.751295 0l-327.650214 307.172075c-13.68312 14.613944-13.68312 43.934915 0 58.548859a54.732479 54.732479 0 0 0 47.751296 0z" p-id="1242"></path></svg>