<?xml version="1.0" standalone="no"?><!DOCTYPE svg PUBLIC "-//W3C//DTD SVG 1.1//EN" "http://www.w3.org/Graphics/SVG/1.1/DTD/svg11.dtd"><svg t="1545816080169" class="icon" style="" viewBox="0 0 1024 1024" version="1.1" xmlns="http://www.w3.org/2000/svg" p-id="1718" xmlns:xlink="http://www.w3.org/1999/xlink" width="200" height="200"><defs><style type="text/css"></style></defs><path d="M964.215172 96.368442h-112.821592v-32.110177C851.39358 29.19107 822.088779 0 786.907852 0H241.755137c-35.143016 0-64.447818 29.19107-64.447818 64.258265v32.110177H64.485728C29.304802 96.368442 0 125.559513 0 160.626708v128.51653c0 96.330532 79.119174 175.184332 175.82881 175.184332h1.478509c14.671356 154.788494 134.80967 277.428899 287.209804 299.341158v131.435637H351.695531c-35.180926 0-64.447818 29.19107-64.447817 64.220355v48.184221c0 8.757321 7.278812 16.074044 16.074044 16.074044H719.540928a16.225686 16.225686 0 0 0 16.111954-16.074044v-48.146311c0-35.067195-29.304802-64.258265-64.447817-64.258265h-112.859502v-131.435637c152.400133-21.912258 272.576358-146.031172 287.209803-299.341158h1.478509c96.671726 0 175.82881-78.8538 175.828811-175.222243v-128.51653c5.876125-36.469883-23.428677-64.220355-58.609604-64.220355zM178.785828 366.518529A80.218578 80.218578 0 0 1 98.188146 286.18622V191.296287h80.597682v175.222242z m460.119507-30.707489l-49.814372 51.141239 11.714339 73.015586c1.478509 5.838214-1.478509 11.676428-5.876125 16.036133-2.919107 1.478509-5.838214 2.919107-8.795232 2.919107-2.919107 0-5.838214 0-7.316722-1.440598l-61.528711-33.588686-61.566621 33.588686a16.187775 16.187775 0 1 1-23.466588-17.514642l11.752249-73.015586-49.814371-51.103329a16.415238 16.415238 0 0 1-4.397616-16.074043 14.064788 14.064788 0 0 1 13.192847-10.23583l68.845433-10.23583 30.783311-65.660953a16.111954 16.111954 0 0 1 14.671356-8.757321c5.838214 0 11.714339 2.919107 14.633446 8.71941l30.78331 65.736774 68.883344 10.23583c5.838214 1.440598 10.23583 4.359705 13.192847 10.23583a21.874347 21.874347 0 0 1-5.876124 16.036133z m293.048017-48.146311a80.218578 80.218578 0 0 1-80.559772 80.294399V192.736885h80.597683v94.927844z" p-id="1719"></path></svg>