<?xml version="1.0" standalone="no"?><!DOCTYPE svg PUBLIC "-//W3C//DTD SVG 1.1//EN" "http://www.w3.org/Graphics/SVG/1.1/DTD/svg11.dtd"><svg t="1545899934792" class="icon" style="" viewBox="0 0 1024 1024" version="1.1" xmlns="http://www.w3.org/2000/svg" p-id="1267" xmlns:xlink="http://www.w3.org/1999/xlink" width="200" height="200"><defs><style type="text/css"></style></defs><path d="M431.542857 110.153143v481.499428h482.157714a432.054857 432.054857 0 0 1-428.178285 377.124572c-237.933714 0-431.542857-193.316571-431.542857-431.104C53.906286 318.317714 218.843429 136.630857 431.542857 110.153143z m53.979429-57.270857A485.229714 485.229714 0 0 0 0 537.819429c0 267.702857 217.380571 484.937143 485.522286 484.937142a485.229714 485.229714 0 0 0 485.522285-484.937142H485.522286V52.882286z" p-id="1268"></path><path d="M591.286857 58.368a431.981714 431.981714 0 0 1 374.198857 373.76H591.286857V58.441143zM537.234286 1.097143v484.937143h485.595428A485.229714 485.229714 0 0 0 537.234286 1.097143z" p-id="1269"></path></svg>