<?xml version="1.0" standalone="no"?><!DOCTYPE svg PUBLIC "-//W3C//DTD SVG 1.1//EN" "http://www.w3.org/Graphics/SVG/1.1/DTD/svg11.dtd"><svg t="1545894110546" class="icon" style="" viewBox="0 0 1024 1024" version="1.1" xmlns="http://www.w3.org/2000/svg" p-id="1241" xmlns:xlink="http://www.w3.org/1999/xlink" width="200" height="200"><defs><style type="text/css"></style></defs><path d="M512 512m-512 0a512 512 0 1 0 1024 0 512 512 0 1 0-1024 0Z" fill="#4080CA" p-id="1242"></path><path d="M892.152242 499.898182C830.774303 390.454303 685.924848 279.986424 527.142788 279.986424 368.329697 280.017455 223.511273 390.485333 162.505697 499.898182L155.151515 512.403394l7.354182 12.474182C223.511273 633.949091 368.329697 744.727273 527.142788 744.727273c158.782061 0 303.631515-110.809212 365.009454-219.849697l7.012849-12.474182-7.012849-12.536242z m-365.009454 193.380848c-130.854788 0-254.758788-91.16703-311.358061-180.906666C272.384 422.322424 396.288 331.527758 527.142788 331.527758c130.854788 0 254.758788 90.794667 311.35806 180.906666-56.630303 89.677576-180.503273 180.875636-311.35806 180.875637z" fill="#FFFFFF" p-id="1243"></path><path d="M527.204848 382.913939v129.241213h131.568485c0 71.369697-58.895515 129.241212-131.568485 129.241212-72.67297 0-131.568485-57.871515-131.568484-129.241212s58.895515-129.241212 131.568484-129.241213z" fill="#FFFFFF" p-id="1244"></path></svg>
