<?xml version="1.0" standalone="no"?><!DOCTYPE svg PUBLIC "-//W3C//DTD SVG 1.1//EN" "http://www.w3.org/Graphics/SVG/1.1/DTD/svg11.dtd"><svg t="1545816088825" class="icon" style="" viewBox="0 0 1024 1024" version="1.1" xmlns="http://www.w3.org/2000/svg" p-id="1835" xmlns:xlink="http://www.w3.org/1999/xlink" width="200" height="200"><defs><style type="text/css"></style></defs><path d="M843.282963 543.061333V120.490667A120.414815 120.414815 0 0 0 722.868148 0H120.490667A120.414815 120.414815 0 0 0 0 120.490667v602.339555a120.414815 120.414815 0 0 0 120.490667 120.452741h421.622518v-150.565926c0-83.171556 121.400889-150.565926 271.056593-150.565926 10.24 0 20.252444 0.18963 30.113185 0.910222z m-361.434074-61.174518L346.377481 346.339556 180.717037 512l-60.22637-60.22637 240.905481-240.943408 135.547259 135.509334 165.660445-165.622519 60.22637 60.22637-240.943407 240.943408z m120.528592 210.830222c0 49.872593 94.321778 90.339556 210.792297 90.339556 116.470519 0 210.830222-40.466963 210.830222-90.339556 0-49.910519-94.359704-90.339556-210.830222-90.339556-116.432593 0-210.792296 40.429037-210.792297 90.339556z m210.792297 271.056593c-81.768296 0-154.927407-20.100741-204.686222-51.882667a43.235556 43.235556 0 0 0-6.106075 21.769481c0 49.872593 94.321778 90.339556 210.792297 90.339556C929.640296 1024 1024 983.533037 1024 933.660444c0-7.547259-2.123852-14.829037-6.106074-21.769481-49.682963 31.744-122.955852 51.882667-204.724148 51.882667z m0-120.490667c-81.768296 0-154.927407-20.100741-204.686222-51.882667a43.235556 43.235556 0 0 0-6.106075 21.769482c0 49.872593 94.321778 90.377481 210.792297 90.377481 116.470519 0 210.830222-40.504889 210.830222-90.377481 0-7.509333-2.123852-14.791111-6.106074-21.769482-49.682963 31.781926-122.955852 51.882667-204.724148 51.882667z" p-id="1836"></path></svg>