<?xml version="1.0" standalone="no"?><!DOCTYPE svg PUBLIC "-//W3C//DTD SVG 1.1//EN" "http://www.w3.org/Graphics/SVG/1.1/DTD/svg11.dtd"><svg class="icon" width="200px" height="200.00px" viewBox="0 0 1024 1024" version="1.1" xmlns="http://www.w3.org/2000/svg"><path d="M512 512m-512 0a512 512 0 1 0 1024 0 512 512 0 1 0-1024 0Z" fill="#4080CA" /><path d="M409.5232 256.384H341.2992A85.376 85.376 0 0 0 256 341.632V409.856A85.4016 85.4016 0 0 0 341.2992 495.104h153.4464V341.6832A85.376 85.376 0 0 0 409.5232 256.384zM460.6208 461.056H341.2992a51.2 51.2 0 0 1-51.2-51.2V341.632a51.2 51.2 0 0 1 51.2-51.1744h68.1472a51.2 51.2 0 0 1 51.2 51.2v119.3984zM256 614.4768v68.224A85.4016 85.4016 0 0 0 341.2992 768h68.1472a85.4016 85.4016 0 0 0 85.2992-85.2992v-153.4464H341.2992A85.376 85.376 0 0 0 256 614.4768z m204.6208 68.224a51.2 51.2 0 0 1-51.1744 51.2H341.2992a51.2 51.2 0 0 1-51.2-51.2v-68.224a51.2 51.2 0 0 1 51.2-51.2h119.3216v119.424z" fill="#ffffff" /><path d="M682.3168 256.384h-68.224a85.3248 85.3248 0 0 0-85.248 85.248v153.4464h153.472a85.3248 85.3248 0 0 0 85.248-85.2992v-68.224a85.248 85.248 0 0 0-85.248-85.1712z m51.2 153.5232a51.2 51.2 0 0 1-51.2 51.2h-119.3472v-119.424a51.2 51.2 0 0 1 51.2-51.2h68.224a51.2 51.2 0 0 1 51.1744 51.2v68.224h-0.0768zM682.3168 529.2544H528.896v153.4464A85.376 85.376 0 0 0 614.0928 768h68.224a85.3248 85.3248 0 0 0 85.248-85.2992v-68.224a85.2736 85.2736 0 0 0-85.248-85.248z m51.2 153.4464a51.2 51.2 0 0 1-51.2 51.2h-68.224a51.2 51.2 0 0 1-51.2-51.2v-119.3216h119.424a51.2 51.2 0 0 1 51.2 51.1744v68.1472z" fill="#ffffff" /></svg>
